# xmcd CD database file
#
# Track frame offsets:
#	150
#	25438
#	51980
#	81321
#	103850
#	137956
#	171282
#	200874
#	230133
#
# Disc length: 3536 seconds
#
# Revision: 0
# Processed by: cddbd v1.5PL3 Copyright (c) Steve Scherf et al.
# Submitted via: CDex 1.51
#
DISCID=8c0dce09
DTITLE=Gomer Edwin Evans -  Universal Love
DYEAR=2001
DGENRE=New Age
TTITLE0=Four Seasons Of Love
TTITLE1=Dona Nobis
TTITLE2=Blue Tango
TTITLE3=My Dream
TTITLE4=I Agapi Moo
TTITLE5=1565
TTITLE6=Sail With Me
TTITLE7=Gwanda Y Ddaear
TTITLE8=Mysteries Of The Universe
EXTD=YEAR: 2001
EXTT0=
EXTT1=
EXTT2=
EXTT3=
EXTT4=
EXTT5=
EXTT6=
EXTT7=
EXTT8=
PLAYORDER=
